<?xml version="1.0" encoding="utf-8"?>
<!-- Svg Vector Icons : http://www.onlinewebfonts.com/icon -->
<!DOCTYPE svg PUBLIC "-//W3C//DTD SVG 1.1//EN" "http://www.w3.org/Graphics/SVG/1.1/DTD/svg11.dtd">
<svg version="1.1" xmlns="http://www.w3.org/2000/svg" xmlns:xlink="http://www.w3.org/1999/xlink" x="0px" y="0px" viewBox="0 0 1000 1000" enable-background="new 0 0 1000 1000" xml:space="preserve">
<metadata> Svg Vector Icons : http://www.onlinewebfonts.com/icon </metadata>
<g><g transform="translate(0.000000,511.000000) scale(0.100000,-0.100000)"><path d="M4480.1,4990.3c-606.4-73.5-1128.7-231-1666.9-498.7c-963.4-483-1711.5-1228.5-2191.9-2191.9C243.3,1538.4,70.1,745.7,104.2-76c44.6-1023.7,364.9-1929.4,968.6-2745.8c753.4-1015.8,1892.6-1706.2,3157.9-1916.2c399-65.6,1149.7-65.6,1548.7,0c2097.4,346.5,3724.9,1974,4071.3,4071.3c65.6,399,65.6,1149.7,0,1548.7c-343.9,2076.4-1942.5,3696-4005.7,4058.2C5498.6,5000.8,4789.8,5027,4480.1,4990.3z M5472.3,4462.6c2399.2-262.5,4147.5-2433.3,3887.6-4822.1C9215.6-1693,8438.5-2924.1,7307.2-3617.1c-842.6-514.5-1808.6-735-2769.3-630C2143.8-3987.2,387.7-1808.5,650.2,575c60.4,551.3,178.5,947.6,443.6,1488.4c422.6,853.1,1099.9,1533,1955.6,1955.6C3850.1,4412.8,4629.7,4557.2,5472.3,4462.6z"/><path d="M4876.5,3194.8c-133.9-73.5-131.3-65.6-133.9-1491V370.3H3417c-1441.1,0-1438.5,0-1504.1-144.4c-63-133.9-10.5-294,112.9-349.1c49.9-23.6,422.6-31.5,1391.2-31.5h1325.6v-1325.6c0-1441.1,0-1438.5,144.4-1504.1c86.6-39.4,149.6-39.4,236.2,0c144.4,65.6,144.4,63,144.4,1504.1v1325.6h1325.6c1441.1,0,1438.5,0,1504.1,144.4c63,133.9,10.5,294-112.9,349.1c-49.9,23.6-422.6,31.5-1391.2,31.5H5267.6v1325.6c0,968.6-7.9,1341.4-31.5,1391.2C5178.3,3213.1,5005.1,3265.6,4876.5,3194.8z"/></g></g>
</svg>