<?xml version="1.0" encoding="utf-8"?>
<!-- Generator: Adobe Illustrator 24.3.0, SVG Export Plug-In . SVG Version: 6.00 Build 0)  -->
<svg version="1.1" id="Layer_1" xmlns="http://www.w3.org/2000/svg" xmlns:xlink="http://www.w3.org/1999/xlink" x="0px" y="0px"
	 viewBox="0 0 512 512" style="enable-background:new 0 0 512 512;"
		 xml:space="preserve" fill="#999" width="20px"
>
<g>
	<path d="M109.92,400.92l121.27-0.4L495.9,138.36c10.39-10.39,16.1-24.18,16.1-38.86s-5.72-28.47-16.1-38.86l-43.61-43.58
		c-20.77-20.77-57-20.66-77.61-0.08L109.92,279.19V400.92z M413.46,55.92l43.66,43.5l-43.9,43.47l-43.58-43.55L413.46,55.92z
		 M164.88,302.11l165.71-164.15l43.58,43.58l-165.66,164.1l-43.63,0.13V302.11z"/>
	<path d="M54.96,510.49h384.72c30.32,0,54.96-24.66,54.96-54.96V217.33l-54.96,54.96v183.23H141.75l-2.17,0.27l-2.74-0.27H54.96
		V70.81h188.17l54.96-54.96H54.96C24.66,15.85,0,40.49,0,70.81v384.72C0,485.83,24.66,510.49,54.96,510.49z"/>
</g>
</svg>
